<svg width="24" height="24" font-size="1.5rem" fill="#fff" viewBox="0 0 24 24" xmlns="http://www.w3.org/2000/svg" data-testid="ImageIcon" class="h5" style="user-select: none; display: inline-block;"><path fill-rule="evenodd" d="M17 5.5H7c-.8284 0-1.5.6716-1.5 1.5v5.5453l2.0431-1.9613a.75.75 0 0 1 1.0756.0378l3.048 3.3689 1.7554-1.6606a.75.75 0 0 1 1.0493.0182L18.5 16.4321V7c0-.8284-.6716-1.5-1.5-1.5ZM5.5 17v-2.3753l2.5246-2.4237 3.0442 3.3647a.75.75 0 0 0 1.0716.0417l1.779-1.6828 4.0467 4.1021a.7498.7498 0 0 0 .0673.0606A1.4952 1.4952 0 0 1 17 18.5H7c-.8284 0-1.5-.6716-1.5-1.5ZM7 4C5.3431 4 4 5.3431 4 7v10c0 1.6569 1.3431 3 3 3h10c1.6569 0 3-1.3431 3-3V7c0-1.6569-1.3431-3-3-3H7Zm8.9375 5.0625c0 .5523-.4477 1-1 1s-1-.4477-1-1 .4477-1 1-1 1 .4477 1 1Zm1.5 0c0 1.3807-1.1193 2.5-2.5 2.5s-2.5-1.1193-2.5-2.5 1.1193-2.5 2.5-2.5 2.5 1.1193 2.5 2.5Z" clip-rule="evenodd"></path></svg>