<svg width="24" height="24" viewBox="0 0 24 24" fill="none" xmlns="http://www.w3.org/2000/svg">
<path fill-rule="evenodd" clip-rule="evenodd" d="M18.9704 4.73521C21.1973 6.15338 21.6711 9.0835 19.9953 11.074L17.3532 14.2122L12.5528 19.7412C12.4093 19.9065 12.1954 20.0015 11.9702 20C11.7451 19.9985 11.5326 19.9006 11.3916 19.7334L6.72916 14.2054L3.9975 10.9785C2.35414 9.03728 2.79027 6.17515 4.94525 4.75881C6.36901 3.82305 8.22985 3.74692 9.73264 4.56293L11.9731 5.77951L14.145 4.58459C15.6523 3.75532 17.5234 3.81373 18.9704 4.73521Z" fill="#1D263C" fill-opacity="0.5"/>
<path fill-rule="evenodd" clip-rule="evenodd" d="M18.5007 15.1783L18.4859 15.1956L13.6855 20.7246C13.6855 20.7246 13.6855 20.7246 13.6855 20.7246C13.2454 21.2315 12.6089 21.5043 11.9601 21.4999C11.3113 21.4956 10.6782 21.2141 10.245 20.7005L5.58254 15.1724L2.85265 11.9477C0.612504 9.30148 1.2338 5.40316 4.12141 3.5053C6.00938 2.26445 8.462 2.16609 10.4484 3.24472L11.9684 4.07007L13.4219 3.27036C15.4078 2.17779 17.8651 2.25301 19.7761 3.46998C22.747 5.36186 23.4192 9.33623 21.1428 12.04L18.5007 15.1783ZM11.9731 5.7795L9.73264 4.56293C8.22986 3.74691 6.36902 3.82305 4.94526 4.7588C2.79027 6.17515 2.35415 9.03727 3.99751 10.9785L6.72917 14.2053L11.3916 19.7334C11.5326 19.9006 11.7451 19.9985 11.9703 20C12.1954 20.0015 12.4093 19.9065 12.5528 19.7412L17.3532 14.2122L19.9953 11.074C21.6711 9.08349 21.1973 6.15337 18.9704 4.73521C17.5234 3.81372 15.6523 3.75532 14.145 4.58458L11.9731 5.7795Z" fill="white"/>
</svg>
