<svg xmlns="http://www.w3.org/2000/svg" viewBox="0 0 750 500"><g id="freepik--background-complete--inject-101"><path d="M121.46,165.265c-2.672-2.019-6.57-2.247-9.46-.555-3.836-7.751-14.524-11.172-22.148-7.088-1.989-8.352-10.218-14.772-18.803-14.669-8.585,.103-16.658,6.719-18.445,15.117-.284,1.334-.472,2.797-1.427,3.772-1.551,1.584-4.14,1.052-6.35,.88-6.953-.542-13.949,4.339-15.839,11.051l95.748-.349c.839-3.242-.605-6.141-3.277-8.16Z" style="fill:#f0f0f0;"></path><g><g><g><g><path d="M673.734,339.783h-180.746c-3.232,0-5.862-2.63-5.862-5.862V70.647c0-3.232,2.63-5.862,5.862-5.862h180.746c3.232,0,5.862,2.629,5.862,5.862V333.921c0,3.233-2.63,5.862-5.862,5.862ZM492.988,65.035c-3.095,0-5.612,2.518-5.612,5.612V333.921c0,3.095,2.518,5.612,5.612,5.612h180.746c3.095,0,5.612-2.518,5.612-5.612V70.647c0-3.094-2.518-5.612-5.612-5.612h-180.746Z" style="fill:#e0e0e0;"></path><path d="M465.306,339.783h-180.747c-3.232,0-5.862-2.63-5.862-5.862V70.647c0-3.232,2.629-5.862,5.862-5.862h180.747c3.232,0,5.862,2.629,5.862,5.862V333.921c0,3.233-2.63,5.862-5.862,5.862ZM284.559,65.035c-3.094,0-5.612,2.518-5.612,5.612V333.921c0,3.095,2.518,5.612,5.612,5.612h180.747c3.095,0,5.612-2.518,5.612-5.612V70.647c0-3.094-2.518-5.612-5.612-5.612h-180.747Z" style="fill:#e0e0e0;"></path></g><path d="M257.012,339.783H76.266c-3.232,0-5.862-2.63-5.862-5.862V70.647c0-3.232,2.629-5.862,5.862-5.862h180.746c3.232,0,5.862,2.629,5.862,5.862V333.921c0,3.233-2.63,5.862-5.862,5.862ZM76.266,65.035c-3.094,0-5.612,2.518-5.612,5.612V333.921c0,3.095,2.518,5.612,5.612,5.612h180.746c3.095,0,5.612-2.518,5.612-5.612V70.647c0-3.094-2.517-5.612-5.612-5.612H76.266Z" style="fill:#e0e0e0;"></path></g><rect y="400.852" width="750" height=".12" style="fill:#e0e0e0;"></rect></g><g><rect x="653.626" y="430.228" width="55.729" height=".421" style="fill:#ebebeb;"></rect><rect x="495.044" y="434.794" width="14.627" height=".421" style="fill:#ebebeb;"></rect><rect x="40.645" y="417.431" width="72.675" height=".421" style="fill:#ebebeb;"></rect><rect x="128.299" y="417.431" width="10.655" height=".421" style="fill:#ebebeb;"></rect><rect x="173.586" y="424.535" width="157.613" height=".421" style="fill:#ebebeb;"></rect></g></g><path d="M633.745,209.105c.053-9.009-2.953-17.768-8.526-24.846-1.934,2.603-4.881,4.264-8.109,4.573,2.201-2.468,3.843-5.383,4.812-8.544-4.001-4.288-8.693-7.797-13.563-10.241,14.689,2.412,29.684,2.651,44.495,.615-15.165-15.596-35.415-20.438-49.014-15.117,4.976-4.724,9.761-9.647,14.296-14.802-1.394-.793-2.849-1.471-4.352-2.027,1.987-.293,4.011-.208,5.967,.251,1.712-1.898,3.478-3.885,5.295-5.942-20.628,1.149-37.891,14.187-35.303,28.075-8.587-16.479-36.592-14.323-57.309,2.478l9.968,1.048c1.421-2.089,3.229-3.885,5.328-5.291-.909,1.773-1.687,3.611-2.328,5.497,9.173,1.039,18.387,1.631,27.611,1.794-15.511,6.012-28.805,25.639-29.604,50.387,16.261-11.189,30.391-25.134,41.853-41.133-2.846,6.826-3.813,15.279-2.533,23.476,.991,.32,2.007,.555,3.038,.702-.902,.347-1.829,.624-2.774,.828,.666,3.482,1.768,6.867,3.279,10.074,1.495,.853,3.077,1.546,4.718,2.066-1.116,.259-2.254,.411-3.399,.454,1.888,3.324,4.33,6.303,7.22,8.806,6.281-8.624,7.604-19.062,6.512-28.796,14.745,63.111-8.678,154.015-8.678,154.015l19.054,.25s20.713-89.601-3.404-152.013c6.666,6.857,15.191,12.264,25.452,13.366Zm-42.074-42.759h0l-.009-.003-.009-.033c.007,.012,.012,.024,.019,.036Z" style="fill:#e0e0e0;"></path><path d="M232.796,177.921c-1.62-10.516-6.762-20.171-14.583-27.385-1.769,3.397-4.896,5.885-8.603,6.846,2.106-3.289,3.477-6.994,4.016-10.863-5.467-4.255-11.593-7.471-17.729-9.412,17.581,.071,35.114-2.45,52.006-7.59-20.597-15.357-45.118-17.224-59.984-8.479,4.921-6.439,9.583-13.073,13.91-19.932-1.773-.664-3.598-1.184-5.455-1.552,2.263-.712,4.64-.991,7.006-.822,1.643-2.533,3.332-5.18,5.066-7.919-23.844,5.19-41.542,23.619-35.932,39.333-13.09-17.616-45.348-9.874-66.374,13.588l11.821-.639c1.267-2.701,3.041-5.134,5.226-7.166-.729,2.238-1.293,4.526-1.689,6.846,10.893-.501,21.749-1.531,32.537-3.062-16.967,9.907-28.807,35.279-25.12,64.291,16.877-16.085,30.752-34.985,41.131-55.784-2.045,8.492-1.594,18.531,1.43,27.852,1.215,.188,2.444,.273,3.674,.251-.987,.574-2.017,1.069-3.081,1.483,1.426,3.937,3.343,7.679,5.705,11.136,1.903,.716,3.877,1.229,5.888,1.529-1.253,.51-2.552,.9-3.879,1.164,2.823,3.525,6.226,6.542,10.064,8.923,5.716-11.23,5.309-23.652,2.219-34.799,28.978,70.851,18.319,175.649,18.319,175.649h22.57s7.44-106.039-32.338-174.325c9.055,6.752,20.006,11.466,32.179,10.836Zm-57.052-42.013h0l-.011-.002c-.005-.013-.012-.024-.017-.036,.01,.013,.018,.025,.028,.038Z" style="fill:#e0e0e0;"></path><path d="M666.817,241.437c-26.777,38.844-28.72,99.803-28.72,99.803l14.968,.224s-1.561-59.567,18.902-100.427c-2.345,6.496-3.15,13.871-.258,20.815,2.392-1.243,4.555-2.885,6.396-4.855-.778-.218-1.533-.508-2.257-.869,1.21-.087,2.409-.303,3.574-.643,1.563-1.951,2.874-4.091,3.901-6.37-.615-.294-1.205-.636-1.767-1.023,.731,.068,1.467,.074,2.198,.018,2.223-5.411,2.946-11.367,2.114-16.514,5.235,12.852,12.637,24.732,21.953,35.072,3.511-17.102-2.386-32.742-12.036-39.409,6.352,1.401,12.768,2.507,19.229,3.299-.13-1.399-.362-2.787-.695-4.152,1.208,1.308,2.154,2.837,2.786,4.502l7.008,.917c-11.452-14.92-30.302-20.992-38.894-11.1,4.053-9.1-5.646-20.872-19.604-25.044,.908,1.709,1.793,3.361,2.657,4.944,1.416,.006,2.818,.28,4.133,.807-1.122,.135-2.231,.362-3.317,.676,2.264,4.279,4.739,8.44,7.376,12.496-8.453-5.88-23.134-5.881-36.091,2.327,9.822,3.826,20.145,6.122,30.613,6.877-3.741,.877-7.533,2.514-10.981,4.798,.146,2.327,.794,4.595,1.898,6.649-2.163-.741-3.911-2.364-4.81-4.466-4.983,3.94-8.481,9.454-9.923,15.64,7.218,.927,13.95-1.382,19.646-4.991Zm16.239-17.452l-.011,.021h-.007l.018-.021Z" style="fill:#e0e0e0;"></path><path d="M380.88,231.971c-20.29,29.434-21.763,75.627-21.763,75.627l11.342,.169s-1.183-45.137,14.323-76.1c-1.777,4.922-2.387,10.511-.195,15.773,1.813-.942,3.452-2.186,4.846-3.679-.59-.165-1.162-.385-1.71-.658,.917-.066,1.825-.23,2.708-.487,1.184-1.478,2.178-3.1,2.956-4.827-.466-.223-.913-.482-1.339-.775,.554,.052,1.111,.056,1.666,.013,1.684-4.101,2.233-8.613,1.602-12.514,3.967,9.739,9.576,18.741,16.635,26.576,2.661-12.959-1.808-24.811-9.121-29.863,4.813,1.062,9.675,1.9,14.571,2.5-.099-1.06-.275-2.112-.526-3.146,.916,.991,1.632,2.15,2.111,3.412l5.31,.694c-8.678-11.306-22.962-15.907-29.472-8.411,3.071-6.895-4.278-15.816-14.855-18.977,.688,1.295,1.359,2.547,2.013,3.746,1.073,.005,2.136,.212,3.132,.612-.85,.102-1.691,.274-2.514,.512,1.716,3.243,3.591,6.396,5.589,9.469-6.405-4.455-17.53-4.456-27.349,1.763,7.443,2.899,15.265,4.639,23.198,5.211-2.835,.665-5.709,1.905-8.321,3.636,.111,1.764,.601,3.482,1.438,5.038-1.639-.561-2.964-1.791-3.645-3.384-3.776,2.985-6.427,7.164-7.519,11.851,5.469,.703,10.571-1.047,14.887-3.782Zm12.305-13.224l-.009,.016h-.005l.014-.016Z" style="fill:#e0e0e0;"></path><path d="M172.08,259.867c-.323-5.908-2.641-11.53-6.576-15.949-1.165,1.783-3.03,2.989-5.134,3.319,1.345-1.705,2.305-3.68,2.815-5.792-2.793-2.652-6.008-4.766-9.298-6.175,9.725,.998,19.564,.559,29.192-1.364-10.56-9.621-24.026-11.991-32.73-7.963,3.074-3.294,6.016-6.711,8.784-10.271-.945-.464-1.926-.851-2.933-1.156,1.291-.271,2.621-.295,3.921-.073,1.047-1.312,2.126-2.685,3.235-4.105-13.477,1.572-24.275,10.804-22.027,19.806-6.282-10.462-24.555-7.937-37.469,3.9l6.575,.291c.848-1.426,1.963-2.676,3.283-3.681-.525,1.199-.962,2.434-1.308,3.696,6.054,.317,12.118,.339,18.171,.08-9.929,4.557-17.865,17.951-17.406,34.206,10.216-7.98,18.924-17.682,25.802-28.625-1.595,4.587-1.893,10.167-.728,15.489,.662,.17,1.338,.284,2.02,.339-.578,.264-1.175,.482-1.786,.653,.574,2.257,1.431,4.431,2.55,6.474,1.014,.5,2.078,.891,3.175,1.167-.721,.213-1.461,.358-2.21,.432,1.37,2.104,3.088,3.96,5.082,5.486,3.775-5.902,4.228-12.798,3.126-19.135,12.171,40.786,.558,98.194,.558,98.194l12.489,1.231s9.9-58.27-8.388-98.225c4.642,4.23,10.445,7.436,17.215,7.751Zm-29.279-26.359h0l-.006-.002-.007-.021,.013,.022Z" style="fill:#e0e0e0;"></path><path d="M449.076,155.602c-2.672-2.019-6.57-2.247-9.46-.555-3.836-7.751-14.524-11.172-22.148-7.088-1.989-8.352-10.218-14.772-18.803-14.669-8.585,.103-16.658,6.719-18.445,15.117-.284,1.334-.472,2.797-1.427,3.771-1.551,1.584-4.14,1.052-6.349,.88-6.953-.542-13.949,4.339-15.839,11.051l95.748-.349c.839-3.242-.605-6.141-3.277-8.16Z" style="fill:#e0e0e0;"></path><path d="M412.173,102.982c-1.234-.933-3.035-1.038-4.37-.256-1.772-3.581-6.71-5.161-10.231-3.274-.919-3.858-4.72-6.824-8.686-6.776-3.966,.048-7.695,3.104-8.521,6.984-.131,.617-.218,1.292-.659,1.742-.716,.732-1.912,.486-2.933,.406-3.212-.251-6.444,2.005-7.317,5.105l44.232-.161c.387-1.498-.279-2.837-1.514-3.769Z" style="fill:#f0f0f0;"></path><path d="M696.093,146.483c-1.234-.933-3.035-1.038-4.37-.256-1.772-3.581-6.71-5.161-10.231-3.274-.919-3.858-4.72-6.824-8.686-6.776-3.966,.048-7.695,3.104-8.521,6.984-.131,.617-.218,1.292-.659,1.742-.716,.732-1.912,.486-2.933,.407-3.212-.251-6.444,2.004-7.317,5.105l44.232-.161c.388-1.498-.279-2.837-1.513-3.769Z" style="fill:#f0f0f0;"></path><path d="M314.51,213.834c-1.353-1.022-3.327-1.138-4.791-.281-1.942-3.925-7.355-5.658-11.216-3.589-1.007-4.23-5.174-7.481-9.522-7.429-4.348,.052-8.436,3.403-9.341,7.655-.144,.676-.239,1.416-.722,1.91-.785,.802-2.096,.533-3.215,.446-3.521-.275-7.064,2.197-8.021,5.597l48.488-.176c.425-1.642-.306-3.11-1.659-4.132Z" style="fill:#f0f0f0;"></path><path d="M611.46,105.149c-1.928-1.457-4.741-1.622-6.826-.4-2.768-5.593-10.481-8.061-15.981-5.115-1.435-6.027-7.373-10.659-13.568-10.585-6.195,.074-12.02,4.849-13.309,10.908-.205,.963-.341,2.018-1.029,2.722-1.119,1.143-2.987,.759-4.582,.635-5.017-.391-10.065,3.131-11.43,7.975l69.09-.251c.605-2.339-.436-4.431-2.364-5.888Z" style="fill:#f0f0f0;"></path><path d="M207.839,65.188c-1.928-1.457-4.741-1.622-6.826-.4-2.768-5.593-10.481-8.061-15.981-5.114-1.435-6.027-7.373-10.659-13.568-10.585-6.195,.075-12.02,4.849-13.309,10.908-.205,.963-.341,2.018-1.03,2.722-1.119,1.143-2.987,.759-4.582,.635-5.017-.391-10.065,3.131-11.43,7.975l69.09-.252c.605-2.339-.436-4.431-2.364-5.888Z" style="fill:#f0f0f0;"></path></g><g id="freepik--Shadow--inject-101"><path d="M640.955,437.541c0,5.333-119.072,9.656-265.955,9.656s-265.955-4.323-265.955-9.656,119.072-9.656,265.955-9.656,265.955,4.323,265.955,9.656Z" style="fill:#f5f5f5;"></path></g><g id="freepik--Lines--inject-101"><g><path d="M620.248,261.771h-54.777c-.207,0-.375-.168-.375-.375s.168-.375,.375-.375h54.777c.207,0,.375,.168,.375,.375s-.168,.375-.375,.375Z" style="fill:#263238;"></path><path d="M597.652,269.988h-48.614c-.207,0-.375-.168-.375-.375s.168-.375,.375-.375h48.614c.207,0,.375,.168,.375,.375s-.168,.375-.375,.375Z" style="fill:#263238;"></path></g></g><g id="freepik--Birds--inject-101"><g><path d="M486.172,189.296s-.554-7.851-2.019-9.076c-1.465-1.226-10.429-4.205-10.429-4.205,0,0,3.546,12.102,5.701,13.498,2.155,1.396,6.748-.217,6.748-.217Z" style="fill:#90CAF9;"></path><path d="M473.723,176.016h0c.111,.372,3.583,12.133,5.701,13.498,1.42,.622,2.947,.751,4.42,.372,.784-.14,1.561-.336,2.327-.59,0,0-.566-7.866-2.019-9.076s-9.604-3.941-10.38-4.189h0l-.049-.016Z" style="fill:#fff; opacity:.6;"></path><path d="M490.74,184.58c-2.032,0-6.661,2.793-8.188,2.932-1.527,.14-9.112-6.439-10.737-7.525-1.625-1.086-15.921-3.506-15.921-3.506,0,0,9.481,12.226,15.921,12.583,0,0-4.765,1.676-6.157,1.226-4.411-1.146-5.261-1.607-9.764-1.555l5.172,3.525-7.745,1.195c3.584,.803,7.239,.976,10.86,.512,2.768,1.278,5.613,2.269,8.509,2.963,4.03,1.302,8.311,.198,11.611-2.994,2.783-2.839,11.956-6.051,11.956-6.051l-3.128-1.396c-.455-1.144-1.374-1.878-2.389-1.908Z" style="fill:#90CAF9;"></path><path d="M490.74,184.58c-2.032,0-6.661,2.793-8.188,2.932-1.527,.14-9.112-6.439-10.737-7.525-1.625-1.086-15.921-3.506-15.921-3.506,0,0,9.481,12.226,15.921,12.583,0,0-4.765,1.676-6.157,1.226-4.411-1.146-5.261-1.607-9.764-1.555l5.172,3.525-7.745,1.195c3.584,.803,7.239,.976,10.86,.512,2.768,1.278,5.613,2.269,8.509,2.963,4.03,1.302,8.311,.198,11.611-2.994,2.783-2.839,11.956-6.051,11.956-6.051l-3.128-1.396c-.455-1.144-1.374-1.878-2.389-1.908Z" style="fill:#fff; opacity:.8;"></path><polygon points="493.191 186.535 492.304 187.342 492.834 189.296 496.257 187.885 493.191 186.535" style="fill:#263238;"></polygon><path d="M489.333,187.396c0,.518,.333,.939,.745,.939s.745-.42,.745-.939-.333-.938-.745-.938-.745,.42-.745,.938Z" style="fill:#263238;"></path></g><g><g><path d="M530.599,144.081c-1.478-1.24-7.567,7.528-10.443,8.624,2.047,.941,4.266,.979,6.33,.108,3.172-1.491,5.672-7.438,4.113-8.732Z" style="fill:#90CAF9;"></path><path d="M520.156,152.705c2.047,.932,4.263,.976,6.33,.126,3.172-1.491,5.672-7.456,4.113-8.75-.349-.305-.954,0-1.72,.557-2.459,1.923-6.532,7.223-8.722,8.067Z" style="fill:#fff; opacity:.6;"></path><path d="M535.397,142.392c-1.492-.449-5.215,.934-6.357,.773-1.142-.162-8.064-.791-8.064-.791-1.912-.292-3.281-.371-4.821-.729-3.116-1.713-6.203-2.447-9.52-3.242l6.088,4.456-5.793-.449c2.55,1.303,5.223,2.125,7.943,2.444,1.897,1.498,3.879,2.796,5.927,3.881,2.819,1.776,6.093,1.71,8.87-.18,2.365-1.689,9.475-2.497,9.475-2.497l-2.15-1.671c-.202-1.02-.824-1.795-1.599-1.994Z" style="fill:#90CAF9;"></path><path d="M535.397,142.392c-1.492-.449-5.215,.934-6.357,.773-1.142-.162-8.064-.791-8.064-.791-1.912-.292-3.281-.371-4.821-.729-3.116-1.713-6.203-2.447-9.52-3.242l6.088,4.456-5.793-.449c2.55,1.303,5.223,2.125,7.943,2.444,1.897,1.498,3.879,2.796,5.927,3.881,2.819,1.776,6.093,1.71,8.87-.18,2.365-1.689,9.475-2.497,9.475-2.497l-2.15-1.671c-.202-1.02-.824-1.795-1.599-1.994Z" style="fill:#fff; opacity:.8;"></path><polygon points="537.037 144.386 536.298 144.835 536.472 146.452 539.187 146.057 537.037 144.386" style="fill:#263238;"></polygon><path d="M527.36,143.236c-2.688-1.905-18.198,6.378-24.568,6.756,4.269,1.783,8.748,2.496,13.211,2.102,7.163-.737,14.219-6.863,11.357-8.858Z" style="fill:#90CAF9;"></path><ellipse cx="535.007" cy="144.597" rx=".591" ry=".745" style="fill:#263238;"></ellipse></g><path d="M527.36,143.236c-2.688-1.905-18.198,6.378-24.568,6.756,4.269,1.783,8.748,2.496,13.211,2.102,7.163-.737,14.219-6.863,11.357-8.858Z" style="fill:#fff; opacity:.8;"></path></g></g><g id="freepik--Sun--inject-101"><path d="M340.476,113.545c0,2.69-3.89,4.827-4.554,7.304-.664,2.477,1.592,6.359,.298,8.598-1.294,2.239-5.755,2.196-7.602,4.035-1.847,1.839-1.762,6.291-4.035,7.602-2.273,1.311-6.036-.979-8.598-.298-2.562,.681-4.623,4.555-7.304,4.555s-4.827-3.89-7.304-4.555c-2.477-.664-6.351,1.601-8.598,.298-2.247-1.303-2.188-5.755-4.035-7.602-1.847-1.847-6.283-1.754-7.602-4.035-1.32-2.282,.979-6.061,.298-8.615-.681-2.554-4.554-4.614-4.554-7.304s3.89-4.818,4.554-7.296c.664-2.477-1.592-6.359-.298-8.598,1.294-2.239,5.755-2.197,7.602-4.044s1.762-6.283,4.035-7.602c2.273-1.319,6.036,.988,8.598,.298,2.562-.69,4.623-4.546,7.304-4.546s4.827,3.891,7.304,4.546c2.477,.656,6.351-1.592,8.598-.298s2.188,5.755,4.035,7.602c1.847,1.847,6.283,1.762,7.602,4.044,1.32,2.281-.979,6.036-.298,8.598,.681,2.562,4.554,4.631,4.554,7.313Z" style="fill:#90CAF9;"></path><path d="M340.476,113.545c0,2.69-3.89,4.827-4.554,7.304-.664,2.477,1.592,6.359,.298,8.598-1.294,2.239-5.755,2.196-7.602,4.035-1.847,1.839-1.762,6.291-4.035,7.602-2.273,1.311-6.036-.979-8.598-.298-2.562,.681-4.623,4.555-7.304,4.555s-4.827-3.89-7.304-4.555c-2.477-.664-6.351,1.601-8.598,.298-2.247-1.303-2.188-5.755-4.035-7.602-1.847-1.847-6.283-1.754-7.602-4.035-1.32-2.282,.979-6.061,.298-8.615-.681-2.554-4.554-4.614-4.554-7.304s3.89-4.818,4.554-7.296c.664-2.477-1.592-6.359-.298-8.598,1.294-2.239,5.755-2.197,7.602-4.044s1.762-6.283,4.035-7.602c2.273-1.319,6.036,.988,8.598,.298,2.562-.69,4.623-4.546,7.304-4.546s4.827,3.891,7.304,4.546c2.477,.656,6.351-1.592,8.598-.298s2.188,5.755,4.035,7.602c1.847,1.847,6.283,1.762,7.602,4.044,1.32,2.281-.979,6.036-.298,8.598,.681,2.562,4.554,4.631,4.554,7.313Z" style="fill:#fff; opacity:.7;"></path><circle cx="308.678" cy="113.541" r="22.722" transform="translate(145.518 399.115) rotate(-80.454)" style="fill:#90CAF9;"></circle></g><g id="freepik--Character--inject-101"><g><g><g><path d="M331.001,314.124h0c-1.292,.506-2.742-.139-3.26-1.452l-12.504-32.67c-.504-1.322,.13-2.813,1.419-3.336h0c1.292-.506,2.742,.139,3.26,1.452l12.504,32.67c.511,1.315-.116,2.805-1.401,3.328l-.018,.007Z" style="fill:#263238;"></path><path d="M272.606,299.818c23.372-4.419,30.728-5.733,35.578-1.142,4.849,4.59,7.223,18.17,7.223,18.17l-43.772-9.281,.971-7.746Z" style="fill:#263238;"></path><path d="M257.987,301.266c11.777-11.779,53.182-54.572,66.009-54.612l5.877-.007c2.301-.009-2.717,2.593-10.813,10.75-10.165,10.253-39.478,41.185-42.617,49.99-13.938,.039-18.456-6.121-18.456-6.121Z" style="fill:#263238;"></path><polygon points="656.155 324.756 154.212 325.82 113.05 362.863 113.141 411.333 656.315 410.188 656.155 324.756"></polygon><path d="M491.126,284.295c-12.57-19.124-41.565-17.863-49.471-11.924-14.428,10.821-9.817,33.485-9.817,33.485l58.44-9.506,.847-12.055Z" style="fill:#263238;"></path><path d="M131.574,418.497s-55.45,2.044-55.45,1.131c0-4.559,6.377-8.295,6.377-8.295h-7.067c-12.348-8.908-15.933-41.193-15.933-41.193,33.46-38.446,106.72-57.596,201.266-71.669,4.362,.995,10.532,8.162,15.676,8.915l191.588-10.676c3.706-1.522,14.603-23.722,14.603-23.722,27.265-.294,111.652,26.466,111.652,26.466,22.092,2.108,65.942,5.996,75.836,8.426,15.701,3.855,16.344,6.416,14.032,18.742-5.352,11.039-2.601,48.487-7.384,62.833-4.783,14.346-7.454,27.926-37.633,27.996h0c-1.124,.01-2.043-.915-2.053-2.066-.003-.351,.081-.697,.244-1.006,13.725-27.081,3.396-60.418-23.069-74.462s-59.045-3.475-72.77,23.605c-8.119,16.021-8.078,35.09,.11,51.073,.518,1.032,.12,2.297-.888,2.827-.283,.149-.595,.228-.913,.232l-309.225,.66c-1.115,.025-2.039-.879-2.064-2.02-.008-.367,.08-.73,.255-1.051,13.728-27.079,3.403-60.418-23.06-74.465-26.463-14.047-59.045-3.483-72.773,23.596-8.12,16.018-8.082,35.085,.102,51.069,.525,1.017,.145,2.278-.849,2.815-.289,.156-.61,.239-.937,.241" style="fill:#90CAF9;"></path><g><ellipse cx="179.438" cy="387.446" rx="49.067" ry="50.095" style="fill:#263238;"></ellipse><g style="opacity:.3;"><path d="M181.842,362.268v15.744c0,1.355-1.075,2.453-2.402,2.453h-.016c-1.327,0-2.402-1.098-2.402-2.453v-15.744c0-1.355,1.075-2.452,2.402-2.452h.016c1.327,0,2.402,1.098,2.402,2.452Z" style="fill:#fff;"></path></g><g style="opacity:.3;"><path d="M181.842,396.873v15.744c0,1.355-1.075,2.452-2.402,2.452h-.016c-1.327,0-2.402-1.098-2.402-2.452v-15.744c0-1.355,1.075-2.453,2.402-2.453h.016c1.327,0,2.402,1.098,2.402,2.453Z" style="fill:#fff;"></path></g><g style="opacity:.3;"><path d="M188.612,384.867c-1.147,.663-2.604,.25-3.252-.921h0c-.667-1.172-.278-2.673,.869-3.354l13.359-7.911,.006-.004c1.151-.675,2.619-.269,3.279,.906h0l.003,.006c.661,1.175,.264,2.674-.887,3.348l-13.344,7.911-.033,.02Z" style="fill:#fff;"></path></g><g style="opacity:.3;"><path d="M155.991,401.192h0l-.004-.006c-.661-1.175-.264-2.674,.887-3.348l13.344-7.912c1.152-.683,2.628-.287,3.301,.886h0c.667,1.18,.271,2.688-.883,3.37l-13.344,7.911c-1.156,.681-2.633,.277-3.301-.902Z" style="fill:#fff;"></path></g><g style="opacity:.3;"><path d="M202.869,401.262c-.664,1.173-2.133,1.574-3.282,.896l-13.359-7.911c-1.149-.688-1.537-2.195-.868-3.37h0c.668-1.172,2.139-1.568,3.285-.886l13.344,7.912,.006,.004c1.148,.678,1.541,2.178,.877,3.351h0l-.003,.006Z" style="fill:#fff;"></path></g><g style="opacity:.3;"><path d="M173.505,383.971c-.67,1.169-2.142,1.561-3.287,.877l-13.344-7.911-.006-.004c-1.149-.678-1.541-2.178-.877-3.351h0c.668-1.179,2.146-1.583,3.301-.902l13.344,7.911,.006,.004c1.149,.678,1.541,2.178,.877,3.351h0l-.014,.025Z" style="fill:#fff;"></path></g><path d="M179.44,383.313h0c2.234,0,4.045,1.849,4.045,4.13s-1.811,4.13-4.045,4.13-4.045-1.849-4.045-4.13,1.811-4.13,4.045-4.13Z" style="fill:#263238;"></path></g><g><ellipse cx="590.239" cy="387.446" rx="49.067" ry="50.095" style="fill:#263238;"></ellipse><ellipse cx="590.239" cy="387.446" rx="30.082" ry="30.712" style="fill:#fff; isolation:isolate; opacity:.4;"></ellipse><g style="opacity:.3;"><path d="M592.643,362.268v15.744c0,1.355-1.075,2.453-2.402,2.453h-.015c-1.327,0-2.402-1.098-2.402-2.453v-15.744c0-1.355,1.076-2.452,2.402-2.452h.015c1.327,0,2.402,1.098,2.402,2.452Z" style="fill:#fff;"></path></g><g style="opacity:.3;"><path d="M592.643,396.873v15.744c0,1.355-1.075,2.452-2.402,2.452h-.015c-1.327,0-2.402-1.098-2.402-2.452v-15.744c0-1.355,1.076-2.453,2.402-2.453h.015c1.327,0,2.402,1.098,2.402,2.453Z" style="fill:#fff;"></path></g><g style="opacity:.3;"><path d="M599.413,384.867c-1.147,.663-2.604,.25-3.252-.921h0c-.667-1.172-.278-2.673,.869-3.354l13.359-7.911,.006-.004c1.15-.675,2.619-.269,3.279,.906h0l.003,.006c.661,1.175,.264,2.674-.887,3.348l-13.344,7.911-.033,.02Z" style="fill:#fff;"></path></g><g style="opacity:.3;"><path d="M566.792,401.192h0l-.004-.006c-.661-1.175-.264-2.674,.887-3.348l13.344-7.912c1.152-.683,2.628-.287,3.301,.886h0c.667,1.18,.271,2.688-.883,3.37l-13.344,7.911c-1.156,.681-2.633,.277-3.301-.902Z" style="fill:#fff;"></path></g><g style="opacity:.3;"><path d="M613.67,401.262c-.664,1.173-2.133,1.574-3.282,.896l-13.359-7.911c-1.149-.688-1.537-2.195-.868-3.37h0c.668-1.172,2.138-1.568,3.285-.886l13.344,7.912,.006,.004c1.148,.678,1.541,2.178,.877,3.351h0l-.003,.006Z" style="fill:#fff;"></path></g><g style="opacity:.3;"><path d="M584.306,383.971c-.67,1.169-2.142,1.561-3.287,.877l-13.344-7.911-.006-.004c-1.149-.678-1.541-2.178-.877-3.351h0c.668-1.179,2.145-1.583,3.301-.902l13.344,7.911,.006,.004c1.149,.678,1.541,2.178,.877,3.351h0l-.014,.025Z" style="fill:#fff;"></path></g><path d="M590.24,383.313h0c2.234,0,4.045,1.849,4.045,4.13s-1.811,4.13-4.045,4.13-4.045-1.849-4.045-4.13,1.811-4.13,4.045-4.13Z" style="fill:#263238;"></path></g><path d="M480.384,290.741c-2.833,3.562-6.351,6.492-10.334,8.607-.917,.47-1.288,1.613-.829,2.551,.342,.699,1.069,1.113,1.83,1.042,20.817-.463,63.051-2.096,91.721-5.885,1.294,.027,2.363-1.025,2.389-2.349,.026-1.324-1.001-2.418-2.295-2.445-.111-.002-.223,.004-.333,.017-25.865-7.365-68.425-14.428-75.857-14.674-.669-.038-5.875,12.598-6.292,13.134Z" style="fill:#fff; isolation:isolate; opacity:.1;"></path><path d="M135.627,333.185c-.155-.861-.902-1.475-1.775-1.419-2.65,.168-8.343,.704-11.911,2.326-9.468,4.287-18.504,10.702-27.466,16.007-6.52,3.823-14.137,9.996-20.724,14.575,13.45,1.237,38.587-6.964,51.387-13.048,10.022-4.745,11.251-14.2,10.489-18.441Z" style="fill:#fff; isolation:isolate; opacity:.5;"></path><path d="M73.069,377.768c4.858,.734,9.769,1.042,14.678,.92,2.771-.146,5.758,2.483,6.944,6.116,1.186,3.632,2.798,8.187,4.056,11.976,1.57,4.494-.256,8.642-3.786,8.617-5.751-.028-13.704-.614-17.582-3.311-1.019-.755-1.663-1.929-1.764-3.212-.51-5.865-1.961-11.604-4.295-16.986-.979-2.176-.051-4.37,1.748-4.12Z" style="fill:#263238; isolation:isolate; opacity:.3;"></path><path d="M665.337,343.829c3.956,.668,11.45,.01,15.66-.172,.469-8.715,1.436-12.44,3.156-17.035h0c-7.402,2.76-14.257,4.027-20.898,7.676-3.618,2.099-4.418,5.628-1.787,7.883,.967,.829,2.317,1.404,3.869,1.647Z" style="fill:#fff; isolation:isolate; opacity:.5;"></path><path d="M107.476,373.933s9.943-3.396,11.399,0-7.276,13.509-7.276,13.509l-4.123-13.509Z" style="fill:#263238; isolation:isolate; opacity:.3;"></path><path d="M679.582,369.755s-17.725,3.179-22.535,17.305c-4.81,14.127-2.423,11.911-2.423,11.911l20.09-3.883c2.83-5.433,5.126-15.85,4.868-25.334Z" style="fill:#263238;"></path><path d="M267.228,399.598c-.179,0-.333-.126-.368-.302-.097-.484-9.701-48.596-9.231-62.24,.481-13.993,22.93-37.838,23.997-38.551,.173-.115,.405-.068,.521,.104,.115,.172,.068,.404-.104,.52-1.053,.704-23.191,24.193-23.664,37.953-.447,12.994,8.339,57.646,9.157,61.767,7.617-.005,149.334-.172,162.994-5.196,14.318-5.266,22.513-14.265,24.356-26.747,1.871-12.674,13.651-71.226,13.771-71.815,.04-.202,.236-.341,.441-.293,.203,.04,.334,.238,.293,.441-.118,.59-11.895,59.122-13.763,71.776-1.888,12.774-10.244,21.974-24.839,27.341-14.093,5.184-157.465,5.243-163.562,5.243Z" style="fill:#263238;"></path><path d="M247.788,412.508l3.208-3.417,270.283-12.109s4.448,4.544-21.059,12.672c-8.877,2.829-252.431,2.854-252.431,2.854Z" style="fill:#263238; isolation:isolate; opacity:.3;"></path><g><ellipse cx="433.503" cy="329.212" rx="17.777" ry="7.358" style="isolation:isolate; opacity:.3;"></ellipse><rect x="413.797" y="327.088" width="39.062" height="4.252" style="fill:#90CAF9;"></rect></g></g><path d="M106.902,356.734c.154,.396,19.207-6.337,22.98-10.308,3.773-3.972,5.079-12.28,4.201-13.447-.877-1.168-7.803,.877-10.289,2.457s-20.407,12.241-16.892,21.299Z" style="fill:#fff;"></path><path d="M203.052,326.815c2.353,1.057,32.866,16.647,46.168,19.437,13.303,2.789,280.922-6.675,287.965-6.747,7.043-.072,122.039-27.843,122.039-27.843l-456.172,15.153Z" style="fill:#fff; isolation:isolate; opacity:.1;"></path></g><g><path d="M401.577,266.82c2.348-.231,7.593-5.487,8.938-8.984s-7.72-10.143-11.032-6.846c-4.449,4.398-2.05,16.231,2.094,15.83Z" style="fill:#263238;"></path><path d="M419.927,270.738c-.737,6.383-.888,17.92,3.85,21.718,0,0-1.141,4.311-10.786,4.831-6.859,.361-8.673-3.178-8.673-3.178,6.83-2.267,6.189-7.432,4.551-12.181l11.057-11.19Z" style="fill:#ffbbb5;"></path><path d="M415.437,275.323l-6.535,6.642c.396,1.103,.698,2.238,.903,3.392,2.628-.619,6.033-3.853,6.066-6.668,.061-1.139-.086-2.28-.434-3.367Z" style="isolation:isolate; opacity:.2;"></path><path d="M421.996,262.255c-.762,8.482-.785,13.481-5.195,17.728-6.635,6.361-17.016,2.18-18.806-6.358-1.604-7.683-.111-20.322,8.327-23.411,6.007-2.268,12.715,.764,14.983,6.771,.634,1.68,.87,3.484,.691,5.27Z" style="fill:#ffbbb5;"></path><path d="M419.755,268.043c-1.908-1.361-3.846-8.583-3.228-12.235,.618-3.652,11.76-4.897,13.017-.329,1.611,5.948-6.389,14.983-9.79,12.563Z" style="fill:#263238;"></path><path d="M398.522,257.275s-11.226-3.229-4.86-9.054c6.366-5.825,5.084-1.608,9.865-3.09,5.204-1.607,8.86-7.254,12.65-3.452,3.79,3.802,5.891,6.526,8.898,5.919,5.528-1.114,6.265,10.97,.869,9.465l-7.912-2.086c-9.515,1.302-13.293-1.111-15.682-3.168" style="fill:#263238;"></path><path d="M425.722,269.916c-.867,1.83-2.427,3.239-4.336,3.916-2.53,.881-3.956-1.345-3.396-3.824,.56-2.478,2.427-5.366,5.042-5.169,1.881,.161,3.275,1.817,3.114,3.698-.042,.485-.186,.955-.424,1.379Z" style="fill:#ffbbb5;"></path><path d="M409.816,263.962c-.065,.899-.594,1.588-1.182,1.54-.588-.048-1.012-.816-.947-1.715,.065-.899,.594-1.588,1.182-1.54,.588,.048,1.012,.816,.947,1.715Z" style="fill:#263238;"></path><path d="M413.041,259.61c-.14,.045-.3,.016-.418-.091-1.399-1.269-2.91-.903-2.925-.9-.226,.057-.457-.079-.517-.303-.059-.225,.076-.454,.301-.511,.079-.021,1.972-.48,3.708,1.095,.173,.157,.187,.423,.03,.594-.051,.056-.112,.094-.18,.115Z" style="fill:#263238;"></path><path d="M419.904,269.586l-.023-.002c-.067-.013-.112-.078-.1-.146,.146-.773,.492-1.498,1.002-2.096,.343-.401,.908-.906,1.653-1.033,.714-.127,1.452,.184,1.777,.748,.034,.061,.014,.137-.046,.171-.059,.034-.137,.014-.171-.046-.269-.468-.907-.733-1.519-.627-.672,.114-1.189,.579-1.506,.949-.481,.564-.809,1.249-.945,1.98-.012,.06-.063,.102-.123,.102Z" style="opacity:.2;"></path><path d="M408.425,271.686c-1.068,.717-2.339,1.067-3.623,1-.112,0-.204-.091-.204-.204h0c.013-.113,.11-.198,.224-.195,1.743,.085,3.422-.665,4.523-2.019,.065-.093,.192-.115,.284-.051s.115,.192,.051,.284c-.346,.465-.771,.865-1.255,1.185Z" style="fill:#263238;"></path><g><path d="M396.006,288.752l-36.082,8.829-25.542-6.054-3.862,8.029s16.883,7.595,27.6,9.975c3.461,.769,7.036,.831,10.521,.18l9.482-1.77c9.191-1.63,19.9-3.748,19.9-3.748l-2.016-15.44Z" style="fill:#ffbbb5;"></path><path d="M336.453,292.018l-6.187-1.566-4.158-5.655s-5.467-.807-6.703,.105c-1.236,.912-2.602,3.967-2.602,3.967,0,0-1.577,2.478,.8,3.961,0,0-1.683,2.189,.994,3.955,0,0-2.107,1.036,.753,2.407,2.86,1.371,5.217,.803,7.047,.262,1.83-.541,4.122,.101,4.122,.101l5.867,2.512,.066-10.049Z" style="fill:#ffbbb5;"></path></g><path d="M401.169,263.962c-.065,.899-.594,1.588-1.182,1.54-.588-.048-1.012-.816-.947-1.715,.065-.899,.594-1.588,1.182-1.54,.588,.048,1.012,.816,.947,1.715Z" style="fill:#263238;"></path><path d="M404.316,262.995s-3.168,4.261-4.212,6.014c1.169,1.22,3.362,.855,3.362,.855l.849-6.869Z" style="fill:#e97a75;"></path><path d="M398.327,258.753c-.077-.022-.148-.067-.204-.133-.151-.179-.13-.446,.046-.596,1.771-1.509,3.629-.952,3.715-.938,.223,.068,.35,.304,.285,.528-.065,.223-.297,.349-.519,.283-.076-.026-1.513-.437-2.934,.775-.111,.095-.258,.121-.389,.082Z" style="fill:#263238;"></path><g><path d="M395.489,306.263l3.46-20.117,13.071-2.279c.572-.084,11.19-.957,14.374,10.692l.342,4.453-31.247,7.252Z" style="fill:#263238;"></path><path d="M406.073,303.941c-.724-.011-20.909,5.667-20.909,5.667l-6.85-18.559s12.016-3.053,20.673-5.393c9.675-2.615,18.712-2.937,20.802,1.579,3.96,8.557-13.715,16.706-13.715,16.706Z" style="fill:#263238;"></path></g></g></g></g></svg>
